<svg xmlns="http://www.w3.org/2000/svg" width="200" height="140" fill="none" viewBox="0 0 200 140"><g mask="url(#mask0_16559_24251)"><path fill="#97A3B7" d="M68 48L106.105 70V114L68 136L29.8949 114V70L68 48Z"/><g filter="url(#filter0_f_16559_24251)"><rect width="80" height="60" x="46.391" y="92" fill="#E3E6EB"/></g><g filter="url(#filter1_f_16559_24251)"><rect width="80" height="60" y="23" fill="#E3E6EB"/></g></g><mask id="mask1_16559_24251" width="78" height="88" x="80" y="9" maskUnits="userSpaceOnUse" style="mask-type:alpha"><path fill="currentcolor" d="M119 9L157.105 31V75L119 97L80.8949 75V31L119 9Z"/></mask><g mask="url(#mask1_16559_24251)"><path fill="currentcolor" fill-rule="evenodd" d="M80.895 31V75L119 97L157.105 75V31L119 53L80.895 31Z" clip-rule="evenodd"/><path fill="currentcolor" d="M119 -35L157.105 -13L157.105 31.5L119 53.5L80.8952 31.5L80.895 -13L119 -35Z" opacity=".9"/><g filter="url(#filter2_f_16559_24251)" opacity=".3"><path fill="#97A3B7" d="M68 48L106.105 70V114L68 136L29.8949 114V70L68 48Z"/></g></g><path fill="#fff" stroke="#000" d="M143 68.822L147.867 85.875L148 86.3405L148.469 86.2228L165.671 81.911L153.336 94.6522L152.999 95L153.336 95.3478L165.671 108.089L148.469 103.777L148 103.659L147.867 104.125L143 121.178L138.133 104.125L138 103.659L137.531 103.777L120.329 108.089L132.664 95.3478L133.001 95L132.664 94.6522L120.329 81.911L137.531 86.2228L138 86.3405L138.133 85.875L143 68.822Z"/><path fill="#fff" fill-rule="evenodd" d="M123.243 35.0821L126.071 33.4493L123.243 31.8164L120.414 33.4493L123.243 35.0821ZM119 32.6329L121.828 31L114.757 26.9179L111.929 28.5507L119 32.6329ZM127.485 35.8986C122.806 38.6001 115.194 38.6001 110.515 35.8986C105.835 33.197 105.835 28.803 110.515 26.1014C115.194 23.3999 122.806 23.3999 127.485 26.1014C132.165 28.803 132.165 33.197 127.485 35.8986ZM107.686 24.4686C101.438 28.0756 101.438 33.9244 107.686 37.5314C113.934 41.1384 124.066 41.1384 130.314 37.5314C136.562 33.9244 136.562 28.0756 130.314 24.4686C124.066 20.8616 113.934 20.8616 107.686 24.4686Z" clip-rule="evenodd"/><path fill="#fff" fill-rule="evenodd" d="M41.8989 86.2863L44.7272 87.9193L44.7275 94.4512L41.8992 92.8181L41.8989 86.2863ZM53.9194 93.2269L56.7477 94.86L56.7479 101.392L53.9196 99.7587L53.9194 93.2269ZM44.7281 107.515L41.8999 105.882L41.9 109.148L44.7283 110.781L44.7282 107.515L53.92 112.822L53.9201 116.088L56.7484 117.721L56.7483 114.455L53.9201 112.822L53.92 109.556L44.728 104.249L44.7281 107.515Z" clip-rule="evenodd"/></svg>